<mxfile host="app.diagrams.net" modified="2023-06-21T20:21:16.651Z" agent="Mozilla/5.0 (Windows NT 10.0; Win64; x64) AppleWebKit/537.36 (KHTML, like Gecko) Chrome/113.0.0.0 Safari/537.36 OPR/99.0.0.0" version="21.5.0" etag="DFugkr-Stg9bTrhSRZOQ" type="github">
  <diagram name="PÃ¡gina-1" id="dplFQ-64sNLR6vtTWmUc">
    <mxGraphModel>
      <root>
        <mxCell id="0" />
        <mxCell id="1" parent="0" />
      </root>
    </mxGraphModel>
  </diagram>
</mxfile>
